<?xml version="1.0" encoding="UTF-8"?>
<svg id="Layer_2" data-name="Layer 2" xmlns="http://www.w3.org/2000/svg" xmlns:xlink="http://www.w3.org/1999/xlink" viewBox="0 0 2124.98 2599.79">
  <defs>
    <style>
      .cls-1 {
        fill: url(#linear-gradient-2);
      }

      .cls-2 {
        fill: #fff;
      }

      .cls-3 {
        fill: #f0b624;
      }

      .cls-4 {
        fill: #fbb040;
      }

      .cls-5 {
        fill: #be4e1e;
      }

      .cls-6 {
        fill: #ef4136;
      }

      .cls-7 {
        fill: url(#linear-gradient-3);
      }

      .cls-8 {
        fill: url(#linear-gradient);
      }

      .cls-9 {
        fill: #414042;
      }
    </style>
    <linearGradient id="linear-gradient" x1="343.02" y1="564.58" x2="802.45" y2="564.58" gradientUnits="userSpaceOnUse">
      <stop offset="0" stop-color="#ef4136"/>
      <stop offset="1" stop-color="#be4e1e"/>
    </linearGradient>
    <linearGradient id="linear-gradient-2" x1="855.8" y1="937.96" x2="1191.25" y2="937.96" xlink:href="#linear-gradient"/>
    <linearGradient id="linear-gradient-3" x1="829.07" y1="723" x2="1217.98" y2="723" xlink:href="#linear-gradient"/>
  </defs>
  <g id="Layer_1-2" data-name="Layer 1">
    <g>
      <g>
        <path class="cls-9" d="m465.06,2436.46c28.47-3.37,56.41-6.73,83.81-10.1,27.4-3.37,55.03-6.73,82.89-10.1.61-3.98,1.22-7.58,1.84-10.79.61-3.21,1.22-6.2,1.84-8.96,3.06-14.08,5.97-27.94,8.73-41.56,2.76-13.62,5.81-27.33,9.19-41.1.61-3.37,1.68-6.35,3.21-8.96,1.53-2.6,3.06-5.12,4.59-7.58,1.84-2.76,4.13-4.43,6.89-5.05,2.76-.61,5.35-.15,7.81,1.38,2.45,1.54,4.05,3.52,4.82,5.97.76,2.45.99,5.05.69,7.81-2.76,18.68-5.44,37.2-8.04,55.57-2.6,18.37-5.28,37.05-8.04,56.03-3.37,20.21-5.9,40.57-7.58,61.08-1.69,20.52-2.53,41.18-2.53,62,0,5.21.46,10.33,1.38,15.38.92,5.05,1.84,10.18,2.75,15.38,1.84,10.41-.16,17.29-5.97,20.67-3.37,1.84-7.05,2.37-11.02,1.61-3.98-.77-7.05-3.29-9.18-7.58-2.45-4.28-4.44-8.88-5.97-13.78-1.54-4.89-2.61-9.79-3.21-14.7-2.15-15.31-2.76-31.38-1.84-48.22.61-11.02,1.53-22.12,2.75-33.29,1.22-11.17,2.45-22.27,3.67-33.29-27.86,3.37-55.27,6.59-82.2,9.64-26.94,3.06-54.04,6.13-81.29,9.18-.31,3.98-.69,7.74-1.15,11.25-.46,3.52-.69,6.97-.69,10.33,0,21.12.46,42.25,1.38,63.38.3,3.06.84,6.05,1.61,8.96.76,2.91,1.76,5.74,2.99,8.5,2.45,5.21,3.37,10.33,2.75,15.38-.62,5.05-2.75,9.26-6.43,12.63-3.37,3.67-7.51,5.74-12.4,6.2-4.9.46-9.03-1.31-12.4-5.28-2.45-2.76-4.75-6.05-6.89-9.87-2.15-3.82-3.52-7.73-4.13-11.71-1.54-9.79-2.68-19.67-3.44-29.62-.77-9.95-1.46-19.98-2.07-30.08-.62-7.35-.77-14.85-.46-22.5.3-7.65.46-15.46.46-23.42-2.15-.3-4.21-.53-6.2-.69-1.99-.15-3.9-.23-5.74-.23-4.9-.61-9.8-.99-14.7-1.15-4.9-.15-9.64-.69-14.24-1.61-4.29-.61-7.51-2.45-9.64-5.51-2.14-3.06-2.91-6.58-2.3-10.56,1.53-8.27,7.5-11.94,17.91-11.02,5.81.62,11.63,1.08,17.45,1.38,5.81.31,11.94.77,18.37,1.38.61-4.28.99-8.19,1.15-11.71.15-3.52.38-6.96.69-10.33,2.14-26.64,5.05-52.73,8.73-78.3,3.67-25.56,8.88-51.05,15.61-76.46,1.22-4.28,2.53-8.42,3.9-12.4,1.38-3.98,2.98-7.96,4.82-11.94,3.98-7.65,9.49-10.56,16.53-8.73,7.35,1.84,11.02,7.97,11.02,18.37-.31,3.37-.85,6.82-1.61,10.33-.77,3.52-1.46,6.97-2.07,10.33-3.06,24.5-6.05,48.91-8.96,73.25-2.91,24.34-5.74,48.91-8.5,73.71-.62,3.06-.92,6.13-.92,9.19s-.16,7.05-.46,11.94Z"/>
        <path class="cls-9" d="m734.64,2472.74c-3.06,3.98-5.97,7.58-8.73,10.79-2.75,3.21-5.51,6.36-8.27,9.41-2.76,2.45-5.59,5.05-8.5,7.81-2.91,2.76-5.9,4.9-8.96,6.43-5.51,3.37-10.64,4.06-15.38,2.07-4.74-1.99-8.04-6.04-9.87-12.17-1.53-4.28-1.99-8.42-1.38-12.4,2.45-13.78,6.74-26.33,12.86-37.66,6.12-11.32,15-20.97,26.64-28.93,7.65-5.2,15.31-8.11,22.96-8.73,7.65-.61,15.46,1.54,23.42,6.43,4.59,2.76,7.65,5.44,9.18,8.04,1.53,2.6,1.84,6.66.92,12.17-.62,4.9-1.46,9.72-2.53,14.47-1.08,4.75-1.92,9.72-2.53,14.93-.62,4.59-1.23,9.26-1.84,14.01-.62,4.75-.54,8.5.23,11.25.76,2.76,2.3,4.13,4.59,4.13s6.04-2.6,11.25-7.81c4.28-4.89,7.58-8.73,9.87-11.48,2.3-2.76,4.43-5.28,6.43-7.58,1.99-2.3,4.13-4.82,6.43-7.58s5.58-6.43,9.87-11.02c1.22-1.22,2.53-2.45,3.9-3.67,1.38-1.22,2.83-2.14,4.36-2.76,1.53-.61,3.29-.53,5.28.23,1.99.77,3.44,1.77,4.36,2.99.92.62,1.3,1.77,1.15,3.44-.16,1.69-.39,3.29-.69,4.82-.31,1.23-1.38,2.76-3.21,4.59-3.67,4.59-6.59,8.19-8.73,10.79-2.15,2.6-4.13,4.98-5.97,7.12-1.84,2.15-3.9,4.52-6.2,7.12-2.3,2.6-5.44,6.2-9.41,10.79-2.76,3.37-5.59,6.43-8.5,9.18-2.91,2.76-6.05,5.36-9.41,7.81-7.97,5.21-14.78,7.66-20.44,7.35-5.67-.3-10.26-2.6-13.78-6.89-3.52-4.28-6.05-9.95-7.58-16.99-1.54-7.04-2.15-14.54-1.84-22.5Zm-39.04,13.78c3.06-2.14,7.04-5.81,11.94-11.02,4.89-5.2,9.72-10.63,14.47-16.3,4.74-5.66,9.03-11.17,12.86-16.53,3.82-5.35,6.2-9.41,7.12-12.17-5.21-.61-10.41.39-15.61,2.98-5.21,2.6-9.87,6.43-14.01,11.48-4.13,5.05-7.74,11.18-10.79,18.37-3.06,7.2-5.05,14.93-5.97,23.19Z"/>
        <path class="cls-9" d="m851.75,2472.28c4.59-8.57,8.57-16.07,11.94-22.5,3.37-6.43,6.73-12.4,10.1-17.91,3.37-5.51,7.12-10.86,11.25-16.07,4.13-5.2,9.41-11.02,15.84-17.45,2.76-2.76,5.58-4.13,8.5-4.13s5.28.92,7.12,2.76,2.91,4.13,3.21,6.89c.3,2.76-.77,5.51-3.21,8.27-5.82,6.43-10.79,12.4-14.93,17.91-4.13,5.51-7.81,11.18-11.02,16.99-3.21,5.82-6.28,11.87-9.18,18.14-2.91,6.28-6.2,13.4-9.87,21.35-2.15,3.37-4.13,6.89-5.97,10.56-1.84,3.67-3.98,7.05-6.43,10.1-4.29,6.13-9.57,9.11-15.84,8.96-6.28-.15-11.56-3.44-15.84-9.87-7.66-10.71-12.48-22.19-14.47-34.44-1.99-12.24-2.68-24.8-2.07-37.66.31-2.76,1.45-5.12,3.44-7.12,1.99-1.99,4.36-2.99,7.12-2.99,3.06,0,5.43,1,7.12,2.99,1.68,1.99,2.83,4.36,3.44,7.12,1.84,14.7,4.13,28.93,6.89,42.71,2.45,11.33,6.73,9.8,12.86-4.59Z"/>
        <path class="cls-9" d="m927.52,2471.82c-.92,6.13-.54,10.56,1.15,13.32,1.68,2.76,4.13,4.44,7.35,5.05,3.21.62,6.89.54,11.02-.23,4.13-.76,8.19-1.91,12.17-3.44,12.24-3.98,22.5-9.03,30.77-15.15,8.27-6.12,16.99-13.16,26.18-21.13,3.98-3.67,7.35-5.66,10.1-5.97,2.76-.3,4.82.31,6.2,1.84,1.38,1.54,1.91,3.9,1.61,7.12-.31,3.21-1.69,6.36-4.13,9.41-4.29,5.51-10.18,11.33-17.68,17.45-7.51,6.13-15.61,11.79-24.34,16.99-8.73,5.21-17.61,9.41-26.64,12.63-9.03,3.21-17.22,4.67-24.57,4.36-14.39-1.53-24.88-7.04-31.46-16.53-6.58-9.49-7.88-21.12-3.9-34.9,3.06-10.4,8.11-19.59,15.16-27.55,3.06-3.67,7.35-7.73,12.86-12.17,5.51-4.43,11.25-8.11,17.22-11.02,5.97-2.91,11.94-4.43,17.91-4.59,5.97-.15,11.09,2.07,15.38,6.66,5.2,5.21,6.58,11.64,4.13,19.29-2.45,7.66-6.82,14.77-13.09,21.35-6.28,6.59-13.48,11.71-21.58,15.38-8.12,3.67-15.38,4.29-21.81,1.84Zm36.28-42.71c-13.48,5.82-22.2,13.94-26.18,24.34,5.51-1.53,10.48-3.98,14.93-7.35,4.43-3.37,8.19-9.03,11.25-16.99Z"/>
        <path class="cls-9" d="m1204.44,2476.88c13.78-14.7,26.71-31.07,38.81-49.14,12.09-18.06,23.65-36.74,34.67-56.03,11.02-19.29,21.5-38.5,31.46-57.63,9.95-19.13,19.67-37.12,29.16-53.96,1.53-1.84,2.75-3.82,3.67-5.97.92-2.14,2.14-4.13,3.67-5.97,1.53-2.45,3.52-4.21,5.97-5.28,2.45-1.07,4.89-.84,7.35.69,6.73,2.76,9.33,7.96,7.81,15.61-.62,2.45-1.31,4.98-2.07,7.58-.77,2.6-1.61,5.13-2.53,7.58-15.61,46.54-30.47,93.15-44.55,139.84-14.09,46.69-26.94,94.22-38.58,142.59-1.23,3.98-2.22,8.04-2.99,12.17-.77,4.13-1.61,8.35-2.53,12.63-1.23,5.21-3.37,9.18-6.43,11.94-3.06,2.76-6.74,3.82-11.02,3.21-3.98-.62-7.2-2.53-9.64-5.74-2.45-3.21-3.52-7.27-3.21-12.17.3-6.12.69-12.32,1.15-18.6.46-6.27,1.45-12.32,2.98-18.14,3.98-16.22,8.27-32.15,12.86-47.76,4.59-15.61,9.03-31.38,13.32-47.3.61-2.76,1.22-5.58,1.84-8.5.61-2.91.61-6.2,0-9.87-1.23,1.84-2.45,3.52-3.67,5.05-1.23,1.54-2.45,3.21-3.67,5.05-7.05,8.88-13.93,17.76-20.67,26.64-6.74,8.88-13.93,17.45-21.58,25.72-3.67,4.59-7.89,8.8-12.63,12.63-4.75,3.83-9.72,7.28-14.93,10.33-12.56,7.05-23.96,7.96-34.21,2.76-10.26-5.2-17.38-15.31-21.35-30.31-2.75-9.79-4.21-19.59-4.36-29.39-.15-9.79.23-19.59,1.15-29.39,4.59-45.62,14.24-89.7,28.93-132.26.92-3.06,2.14-6.2,3.67-9.41,1.53-3.21,3.06-6.2,4.59-8.96,5.2-8.57,11.32-11.17,18.37-7.81,6.43,3.06,8.73,9.95,6.89,20.67-3.37,15.61-6.66,31-9.87,46.15-3.21,15.16-6.05,30.54-8.5,46.15-2.15,11.64-3.75,23.27-4.82,34.9-1.08,11.64-2.22,23.42-3.44,35.36-1.84,20.52.07,32.3,5.74,35.36,5.66,3.06,13.39-.61,23.19-11.02Z"/>
        <path class="cls-9" d="m1418.45,2452.54c5.81.92,11.09.92,15.84,0,4.74-.92,9.57-2.14,14.47-3.67,1.53-.61,3.06-1.22,4.59-1.84,1.53-.61,2.91-.76,4.13-.46,3.98.92,6.73,3.37,8.27,7.35.61.92.69,2.45.23,4.59-.46,2.15-1.31,3.67-2.53,4.59-4.29,3.67-8.58,6.13-12.86,7.35-4.59,1.23-9.18,2.3-13.78,3.21-4.59.92-9.34,1.54-14.24,1.84-3.37,0-6.2.69-8.5,2.07-2.3,1.38-4.52,3.9-6.66,7.58-4.59,7.96-10.18,14.32-16.76,19.06-6.59,4.75-13.86,7.89-21.81,9.41-7.35,1.84-14.01,1.84-19.98,0-5.97-1.84-11.02-5.05-15.16-9.64-4.13-4.59-6.96-10.33-8.5-17.22-1.53-6.89-1.53-14.31,0-22.27,2.45-11.02,6.12-20.67,11.02-28.93,4.89-8.27,12.24-14.7,22.04-19.29,1.84-.92,3.52-2.14,5.05-3.67,1.53-1.53,3.06-3.06,4.59-4.59,5.2-6.12,11.02-9.49,17.45-10.1,6.43-.61,12.55,2.15,18.37,8.27,8.27,8.57,12.86,19.91,13.78,33.98,0,1.54.07,3.37.23,5.51.15,2.15.38,4.44.69,6.89Zm-55.11-5.97c-3.37,4.29-5.74,8.65-7.12,13.09-1.38,4.44-2.38,9.11-2.99,14.01-.92,9.8,2.76,14.24,11.02,13.32,5.2-.61,9.72-2.07,13.55-4.36,3.83-2.3,7.12-6.04,9.87-11.25-5.21-2.45-9.95-5.2-14.24-8.27-4.29-3.06-7.66-8.57-10.1-16.53Zm22.96-22.5c-1.23,7.05-1.31,11.64-.23,13.78,1.07,2.15,4.21,3.98,9.42,5.51-.31-3.06-.62-5.51-.92-7.35-.31-1.84-.77-3.37-1.38-4.59-.62-1.22-1.46-2.37-2.53-3.44-1.08-1.07-2.53-2.37-4.36-3.9Z"/>
        <path class="cls-9" d="m1524.08,2464.02c-3.06,3.98-5.59,7.35-7.58,10.1-2,2.76-4.06,5.21-6.2,7.35-4.29,5.21-8.96,10.03-14.01,14.47-5.05,4.44-10.79,7.89-17.22,10.33-7.96,3.67-15,3.67-21.12,0-5.2-3.06-8.42-8.11-9.64-15.16-1.22-7.04-1.22-14.31,0-21.81,1.23-7.5,3.21-14.7,5.97-21.58,2.75-6.89,5.35-11.71,7.81-14.47,2.76-3.37,6.04-5.12,9.87-5.28,3.82-.15,7.27.62,10.33,2.3,3.06,1.69,5.12,4.06,6.2,7.12,1.07,3.06.23,6.28-2.53,9.64-1.54,1.84-2.91,4.36-4.13,7.58-1.23,3.21-2.45,6.74-3.67,10.56-1.23,3.83-2.22,7.58-2.98,11.25-.77,3.67-1.15,6.74-1.15,9.18,1.22,1.84,3.9,1.08,8.04-2.3,4.13-3.37,8.73-7.81,13.78-13.32s10.02-11.4,14.92-17.68c4.89-6.27,8.88-11.25,11.94-14.93,1.22-1.53,2.37-3.14,3.44-4.82,1.07-1.68,2.37-3.29,3.9-4.82,1.84-1.84,4.28-2.99,7.35-3.44,3.06-.46,6.04-.46,8.96,0,2.91.46,5.43,1.46,7.58,2.98,2.14,1.54,3.37,3.52,3.67,5.97,0,1.54-.31,4.44-.92,8.73-.62,4.29-1.31,9.03-2.07,14.24-.77,5.21-1.38,10.33-1.84,15.38-.46,5.05-.46,9.26,0,12.63.46,3.37,1.61,5.36,3.44,5.97,1.84.62,4.59-.92,8.27-4.59,5.2-5.2,10.17-10.56,14.93-16.07,4.74-5.51,9.56-11.17,14.47-16.99,3.37-3.98,6.66-6.43,9.87-7.35s5.66-.69,7.35.69c1.68,1.38,2.37,3.6,2.07,6.66-.31,3.06-2.15,6.43-5.51,10.1-4.9,6.13-9.87,12.4-14.93,18.83-5.05,6.43-10.1,12.17-15.15,17.22s-10.1,9.11-15.16,12.17c-5.05,3.06-10.03,4.44-14.93,4.13-16.53-1.53-24.34-18.52-23.42-50.98Z"/>
        <path class="cls-9" d="m1765.87,2283.07c-1.54.62-3.21.92-5.05.92s-3.67.16-5.51.46c-9.8,3.37-18.53,8.12-26.18,14.24-7.66,6.13-14.39,13.94-20.21,23.42-2.45,3.67-4.52,7.43-6.2,11.25-1.69,3.83-2.07,8.35-1.15,13.55.92,4.29-.08,7.51-2.99,9.64-2.91,2.15-6.2,2.6-9.87,1.38-3.67-1.53-6.51-4.43-8.5-8.73-1.99-4.28-2.53-9.03-1.61-14.24,1.84-10.71,5.05-20.36,9.64-28.93,8.88-15.61,19.67-27.71,32.38-36.28,12.7-8.57,27.17-14.54,43.4-17.91,2.75-.61,5.51-.76,8.27-.46,2.76.31,5.66.77,8.73,1.38,8.88,2.45,15.31,7.12,19.29,14.01,3.97,6.89,5.05,15.23,3.21,25.03-1.54,5.21-3.06,10.41-4.59,15.61-1.54,5.21-3.37,10.41-5.51,15.61-3.67,7.96-7.51,15.61-11.48,22.96-3.98,7.35-7.51,15-10.56,22.96-6.13,12.86-11.87,25.65-17.22,38.35-5.36,12.71-10.79,25.65-16.3,38.81-2.45,5.21-4.82,9.03-7.12,11.48-2.3,2.45-5.28,3.52-8.96,3.21-3.98-.61-7.5-2.6-10.56-5.97-3.06-3.37-4.59-7.65-4.59-12.86s.38-10.56,1.15-16.07c.76-5.51,1.91-10.86,3.44-16.07,5.51-17.45,11.63-34.29,18.37-50.52,6.73-16.22,14.85-32.15,24.34-47.76,2.45-4.28,4.74-8.5,6.89-12.63,2.14-4.13,4.43-8.19,6.89-12.17-.92-1.22-1.54-2.45-1.84-3.67Zm-38.58,227.33c0-.61.07-.38.23.69.15,1.08.07,2.38-.23,3.9-1.54,4.59-4.59,7.43-9.19,8.5-4.59,1.08-9.03-.07-13.32-3.44-3.98-2.45-6.28-6.27-6.89-11.48-.62-5.2.46-9.49,3.21-12.86,4.28-5.51,9.95-7.35,16.99-5.51,7.04,1.54,10.25,5.21,9.64,11.02v3.67c0,1.23-.16,3.06-.46,5.51Z"/>
      </g>
      <circle class="cls-3" cx="210.33" cy="2443.17" r="38.66"/>
      <g>
        <path class="cls-9" d="m169.31,1803.29h-102.76v75.15h96.42v57.95h-96.42v150.3H0v-341.34h169.31v57.95Z"/>
        <path class="cls-9" d="m224.99,1890.44c21.73-22.18,49.8-33.27,84.2-33.27s62.47,11.09,84.2,33.27c21.73,22.18,32.59,50.63,32.59,85.33s-10.79,63.08-32.37,85.11c-21.58,22.03-49.73,33.05-84.43,33.05s-62.85-11.01-84.43-33.05c-21.58-22.03-32.37-50.4-32.37-85.11s10.87-63.15,32.59-85.33Zm122.23,41.88c-9.66-12.68-22.34-19.01-38.03-19.01s-28.37,6.34-38.03,19.01c-9.66,12.68-14.49,27.16-14.49,43.46s4.9,30.33,14.71,43.01c9.8,12.68,22.41,19.01,37.8,19.01s27.99-6.34,37.8-19.01c9.8-12.68,14.71-27.01,14.71-43.01s-4.83-30.78-14.49-43.46Z"/>
        <path class="cls-9" d="m454.51,1864.41h63.38v120.42c0,37.12,12.07,55.68,36.22,55.68s36.22-18.56,36.22-55.68v-120.42h63.38v130.83c0,65.8-33.2,98.69-99.59,98.69s-99.59-32.89-99.59-98.69v-130.83Z"/>
        <path class="cls-9" d="m761.44,1864.41v20.37h.91c12.07-18.41,31.38-27.61,57.95-27.61,51.3,0,76.96,31.24,76.96,93.71v135.81h-63.38v-134.9c0-3.01-.61-8.07-1.81-15.17-1.21-7.09-2.87-12.22-4.98-15.39-2.12-3.17-5.51-6.18-10.19-9.05-4.68-2.86-10.49-4.3-17.43-4.3-8.76,0-15.92,2.11-21.5,6.34-5.59,4.23-9.44,10.49-11.54,18.79-2.12,8.3-3.47,15.32-4.07,21.05-.61,5.74-.91,13.28-.91,22.64v110.01h-63.38v-222.28h63.38Z"/>
        <path class="cls-9" d="m1089.65,2086.68v-20.82h-.91c-6.34,8.76-14.94,15.62-25.8,20.6-10.87,4.98-22.18,7.47-33.95,7.47-31.09,0-55.91-11.92-74.47-35.76-18.56-23.84-27.84-51.76-27.84-83.75s9.28-58.77,27.84-82.17c18.56-23.38,43.08-35.08,73.56-35.08,11.77,0,23.09,2.42,33.95,7.24,10.86,4.83,19.76,11.62,26.71,20.37h.91v-181.99h63.38v383.89h-63.38Zm-83.98-68.13c9.8,12.83,22.41,19.24,37.8,19.24s27.99-6.41,37.8-19.24c9.8-12.82,14.71-27.23,14.71-43.23s-4.91-30.33-14.71-43.01c-9.81-12.68-22.41-19.01-37.8-19.01s-28,6.34-37.8,19.01c-9.81,12.68-14.71,27.01-14.71,43.01s4.9,30.41,14.71,43.23Z"/>
        <path class="cls-6" d="m1604.6,2043c-31.84,35.16-72.21,52.74-121.1,52.74s-89.26-17.58-121.1-52.74c-31.84-35.16-47.76-77.64-47.76-127.44s15.99-90.99,47.99-126.3c31.99-35.31,72.28-52.97,120.87-52.97s88.88,17.66,120.87,52.97c31.99,35.31,47.99,77.41,47.99,126.3s-15.92,92.28-47.76,127.44Zm-49.8-207.11c-19.17-22.64-42.94-33.95-71.3-33.95s-52.14,11.32-71.3,33.95c-19.17,22.63-28.75,48.29-28.75,76.96s9.96,53.87,29.88,79.22c19.92,25.35,43.3,38.03,70.17,38.03s50.25-12.68,70.17-38.03c19.92-25.35,29.88-51.76,29.88-79.22s-9.58-54.32-28.75-76.96Z"/>
        <path class="cls-6" d="m1746.52,1864.41v20.37h.91c12.07-18.41,31.38-27.61,57.95-27.61,51.3,0,76.96,31.24,76.96,93.71v135.81h-63.38v-134.9c0-3.01-.61-8.07-1.81-15.17-1.21-7.09-2.87-12.22-4.98-15.39-2.12-3.17-5.51-6.18-10.19-9.05-4.68-2.86-10.49-4.3-17.43-4.3-8.76,0-15.92,2.11-21.5,6.34-5.59,4.23-9.44,10.49-11.54,18.79-2.12,8.3-3.47,15.32-4.07,21.05-.61,5.74-.91,13.28-.91,22.64v110.01h-63.38v-222.28h63.38Z"/>
        <path class="cls-6" d="m2124.98,1985.73h-146.22c0,16.3,3.54,30.33,10.64,42.1,7.09,11.77,18.18,17.66,33.27,17.66,18.41,0,32.59-10.11,42.55-30.33l58.4,9.51c-7.55,22.03-20.37,39.09-38.48,51.16-18.11,12.07-38.93,18.11-62.47,18.11-33.8,0-60.74-10.79-80.81-32.37-20.08-21.57-30.11-49.57-30.11-83.98s9.28-64.21,27.84-86.69c18.56-22.48,45.19-33.73,79.9-33.73s60.96,11.25,78.77,33.73c17.8,22.49,26.71,51.54,26.71,87.15v7.7Zm-144.41-39.39h84.65c-1.81-12.37-6.42-22.93-13.81-31.69-7.4-8.75-16.83-13.13-28.29-13.13-12.07,0-21.73,4.3-28.97,12.9-7.24,8.6-11.77,19.24-13.58,31.92Z"/>
      </g>
      <path class="cls-4" d="m1315.03,925.66c-5.22,5.12-10.43,9.94-15.84,14.66-.3.2-.59.49-.79.69-2.75,2.26-5.31,4.53-7.97,6.69-2.26,1.97-4.72,3.84-6.99,5.71l15.35-15.35c4.92-4.92,10.43-9.15,16.24-12.4Z"/>
      <path class="cls-8" d="m802.45,239.41v.2c-.98.49-1.97,1.18-3.05,1.67-2.07,1.28-4.23,2.56-6.4,3.84-.1,0-.2.1-.3.2-1.08.59-2.16,1.28-3.35,1.97-.98.69-1.97,1.18-2.95,1.87-.69.39-1.38.79-2.07,1.28-.69.49-1.48.89-2.16,1.38-1.08.69-2.26,1.48-3.25,2.17-4.43,2.85-8.66,5.71-12.89,8.66-2.76,2.07-5.61,4.13-8.37,6.1-2.26,1.67-4.33,3.25-6.4,4.92-5.02,3.84-9.74,7.77-14.46,11.91-3.84,3.05-7.48,6.4-11.12,9.64h-.1c-4.03,3.74-8.07,7.67-12.01,11.61l-.39.39c-.39.3-.69.59-.98.89-.39.39-.69.69-.98,1.08-.39.29-.79.59-1.08.89-.3.39-.69.69-.98,1.08v.1c-2.76,2.66-5.31,5.31-7.87,8.07-.69.69-1.28,1.38-1.87,2.07-1.38,1.48-2.85,2.95-4.03,4.43-.49.49-.98.98-1.38,1.48-2.56,2.85-5.22,5.71-7.77,8.76-1.48,1.87-3.15,3.74-4.72,5.71v.1c-.39.59-.79,1.08-1.18,1.57-3.84,4.63-7.48,9.35-11.02,14.07-.79,1.08-1.57,2.17-2.36,3.15-2.85,4.03-5.81,7.97-8.46,12.1-1.97,2.85-3.94,5.71-5.81,8.66-3.84,6-7.58,12.1-11.22,18.3,0,.1,0,.2-.2.29-2.56,4.43-4.92,8.86-7.28,13.38h58.94v159.61h-106.86c-.1,1.87-.3,3.74-.49,5.61v.49c-.29,3.44-.59,6.99-.69,10.53-.1.1-.1.2-.1.29v.49c-.2,2.46-.3,4.82-.39,7.28v2.07c-.1,2.76-.2,5.51-.3,8.36v13.28c.1,2.07.1,4.23.2,6.3.3,7.18.59,14.27,1.18,21.45v.39c.2,2.66.39,5.31.69,7.87.1.89.2,1.77.3,2.66.2,2.07.49,4.13.69,6.1.2,1.77.39,3.44.69,5.12.29,2.76.69,5.41,1.08,8.07.69,4.03,1.28,8.07,1.97,12.1.59,3.25,1.28,6.49,1.87,9.74.79,3.74,1.57,7.48,2.46,11.12.98,4.33,2.07,8.46,3.15,12.69.3,1.08.59,2.26.89,3.35,1.18,4.33,2.46,8.66,3.74,12.89.59,1.97,1.18,3.94,1.87,5.81.59,2.07,1.28,4.03,1.97,6,.88,2.76,1.87,5.51,2.95,8.27.49,1.67,1.18,3.35,1.77,5.12.79,2.07,1.57,4.23,2.46,6.3v.2c.69,1.67,1.38,3.25,1.97,4.92,1.97,4.82,4.03,9.64,6.2,14.27v.1c2.26,4.92,4.53,9.84,6.99,14.56,1.38,3.05,2.95,6,4.63,8.95.79,1.57,1.57,3.05,2.46,4.63.69,1.18,1.28,2.46,1.97,3.64l.1.1c.98,1.77,2.07,3.54,3.05,5.21,3.74,6.4,7.48,12.79,11.51,18.99,2.46,3.94,5.12,7.87,7.87,11.81,2.36,3.35,4.72,6.69,7.18,9.94,1.38,1.97,2.76,3.84,4.23,5.61,1.67,2.36,3.54,4.72,5.41,6.99l-.1.1-96.24,166.5-2.66-2.66c-.89-.79-1.77-1.77-2.66-2.66-1.67-1.77-3.44-3.54-5.12-5.31-3.44-3.64-6.69-7.18-10.23-10.82v-.1c-9.55-10.53-18.7-21.26-27.36-32.37-1.57-1.87-3.05-3.74-4.43-5.61-1.97-2.56-3.94-5.12-5.81-7.67-1.97-2.46-3.74-5.02-5.61-7.58-1.77-2.56-3.54-5.02-5.31-7.58-2.16-2.95-4.13-5.9-6.2-8.95-1.38-2.07-2.76-4.13-4.13-6.1-1.38-2.07-2.66-4.13-3.94-6.2-1.18-1.97-2.46-3.84-3.64-5.71-1.18-1.87-2.36-3.84-3.54-5.71-1.97-3.35-3.94-6.69-5.91-10.04-2.46-4.23-4.82-8.36-7.18-12.6-1.97-3.64-4.03-7.38-6-11.12-.39-.79-.79-1.57-1.18-2.36-1.67-3.25-3.35-6.49-4.92-9.74-.69-1.28-1.28-2.56-1.97-3.84-1.77-3.84-3.64-7.58-5.41-11.51-1.97-4.33-3.94-8.66-5.9-13.09-.89-1.97-1.77-4.03-2.56-6-32.08-75.77-48.41-156.26-48.41-239.21,0-13.97.49-27.85,1.48-41.72h-59.63v-159.61h92c4.43-12.79,9.25-25.49,14.56-37.98.79-1.97,1.67-3.94,2.56-5.9,1.97-4.43,3.94-8.76,5.9-13.19,1.77-3.84,3.64-7.67,5.41-11.41.69-1.28,1.28-2.56,1.97-3.94,1.48-3.05,3.05-6.2,4.72-9.25.89-1.77,1.67-3.44,2.76-5.12,1.67-3.44,3.54-6.89,5.41-10.23,2.07-3.74,4.13-7.48,6.4-11.12,1.97-3.35,3.94-6.79,5.91-10.04,1.18-1.97,2.36-3.84,3.54-5.71,1.18-1.97,2.46-3.84,3.64-5.71,1.28-2.07,2.56-4.13,3.94-6.2,1.38-2.07,2.75-4.13,4.13-6.1,2.07-3.05,4.03-6,6.2-8.95,2.36-3.44,4.82-6.89,7.28-10.33,2.56-3.44,5.12-6.79,7.68-10.14,1.97-2.66,4.03-5.31,6.2-7.97,2.95-3.84,5.9-7.58,9.05-11.22,3.05-3.54,6-7.18,9.05-10.73l9.25-10.53c5.21-5.61,10.43-11.22,15.84-16.63l10.14-10.14c1.77-1.67,3.64-3.44,5.41-5.12,2.75-2.76,5.61-5.41,8.46-8.07,4.13-3.74,8.27-7.48,12.5-11.12,6-5.31,12.2-10.33,18.4-15.35,2.56-2.17,5.21-4.13,7.87-6.2,2.07-1.67,4.23-3.35,6.4-4.92,4.03-3.05,7.97-6.1,12.1-9.05.1-.1.3-.2.39-.3q.1,0,.2-.1c2.26-1.57,4.53-3.15,6.89-4.82,1.28-.98,2.76-1.87,4.03-2.85.98-.69,2.07-1.28,3.05-1.97l.3-.3h.1c5.02-3.35,10.14-6.69,15.25-9.94,5.21-3.25,10.63-6.49,15.94-9.74,2.95-1.67,5.91-3.44,8.86-5.12l79.41,141.21,10.33,18.3Z"/>
      <path class="cls-3" d="m1696.82,1336.09l-45.17,45.26c-30.7,30.7-80.49,30.7-111.19,0l-228.09-228.09c-5.41,3.05-10.83,5.9-16.24,8.66-.3.1-.49.2-.69.39h-.3c-1.38.69-2.66,1.48-4.13,2.16-2.85,1.38-5.81,2.85-8.76,4.23-4.43,2.17-8.95,4.33-13.48,6.4-4.53,1.97-9.05,4.03-13.68,5.9-3.44,1.57-7.08,3.05-10.63,4.43-5.41,2.17-10.82,4.23-16.14,6.2-5.41,1.97-10.82,3.84-16.33,5.71-14.56,5.02-29.23,9.25-44.08,13.09-4.92,1.28-9.84,2.46-14.86,3.54-5.51,1.28-11.12,2.46-16.83,3.64-4.33.79-8.76,1.67-13.19,2.46-5.02.89-10.04,1.67-15.06,2.46-.49.1-.98.1-1.38.2-4.33.59-8.56,1.18-12.89,1.77-5.81.69-11.71,1.38-17.61,1.97-4.23.39-8.56.79-12.89,1.08-.49,0-.98.1-1.48.1-3.84.3-7.68.49-11.41.79-3.84.1-7.68.3-11.51.49-3.64.1-7.38.2-11.02.3h-1.57c-3.44.1-6.99.1-10.43.1h-5.22c-1.87,0-3.64,0-5.41-.1h-.3c-3.54,0-7.08-.1-10.63-.2h-.49c-7.09-.29-14.27-.69-21.35-1.18-1.57-.1-3.35-.29-4.92-.29-3.84-.39-7.58-.69-11.32-1.08-6.59-.59-13.09-1.38-19.48-2.16-4.33-.49-8.66-1.18-12.99-1.77-.79-.2-1.48-.2-2.16-.39-4.33-.59-8.56-1.28-12.89-2.07-4.43-.79-8.76-1.67-13.19-2.46-5.61-1.18-11.22-2.36-16.83-3.64-19.88-4.53-39.56-10.04-58.84-16.63-5.51-1.87-10.92-3.74-16.33-5.71-5.41-1.97-10.83-4.03-16.14-6.2-3.64-1.38-7.18-2.85-10.72-4.43-1.67-.69-3.45-1.48-5.12-2.16h-.1c-44.87-19.48-86.89-43.99-125.66-73.31-1.97-1.48-3.94-2.95-5.91-4.62l87.68-151.83,5.02-8.76c16.83,14.66,34.64,27.95,53.53,39.75,3.05,2.07,6.3,4.03,9.45,5.9,3.25,1.97,6.49,3.74,9.64,5.51,3.25,1.87,6.49,3.64,9.84,5.41,3.35,1.67,6.59,3.44,9.94,5.02,3.35,1.77,6.69,3.35,10.14,4.82,6.79,3.25,13.68,6.2,20.66,8.95,4.63,1.87,9.25,3.64,13.87,5.31,3.74,1.38,7.48,2.66,11.22,3.94.98.3,1.87.59,2.85.89.39,0,.69.2,1.08.29.59.2,1.28.39,1.87.59,3.64,1.28,7.28,2.36,11.02,3.35,1.77.49,3.54.98,5.41,1.48,1.67.49,3.35.89,5.12,1.38,3.35.89,6.59,1.67,9.94,2.36.3.2.79.2,1.08.3.98.2,1.77.39,2.66.59.49.2.98.29,1.38.29.39.1.59.2.98.2.29.1.59.2.88.3,1.28.2,2.56.49,3.94.69.98.3,2.16.49,3.25.79,1.28.2,2.66.49,4.03.69,2.56.49,5.12.98,7.68,1.38,1.48.29,2.95.49,4.43.69,3.64.69,7.28,1.18,11.02,1.67.49,0,.89.1,1.38.2h.1c1.57.2,3.05.39,4.62.59,2.16.2,4.33.49,6.59.69.79.1,1.67.2,2.36.29,1.67.1,3.35.2,5.02.39,1.48.1,2.85.3,4.23.3,1.18.1,2.36.29,3.44.29.39,0,.69.1,1.08.1h.59c.49.1.98.1,1.57.1,1.57.1,3.15.2,4.62.2,1.28.1,2.46.2,3.74.2,5.61.2,11.32.39,17.02.39h.29c3.64,0,7.28-.1,10.92-.3h3.64c1.57,0,3.15-.1,4.72-.2h.29c.49-.1.98-.1,1.48-.1.3,0,.69-.1.89-.1,2.75-.1,5.51-.3,8.27-.49,2.56-.1,5.12-.3,7.58-.59h.69c3.64-.39,7.18-.69,10.72-1.08,2.07-.2,4.04-.49,6-.79,2.07-.3,4.13-.59,6.1-.89,1.48-.2,2.75-.39,4.13-.59,1.08-.1,2.26-.29,3.25-.49,1.77-.2,3.44-.49,5.21-.89.69,0,1.48-.2,2.17-.39.79-.1,1.57-.2,2.26-.29,2.16-.39,4.13-.79,6.2-1.28.69-.1,1.48-.2,2.16-.49,1.67-.29,3.25-.59,4.82-.98,1.28-.2,2.66-.49,3.84-.79,4.13-.89,8.17-1.87,12.2-2.95h.1c.39-.2.89-.2,1.38-.39.2-.1.59-.1.89-.2.79-.2,1.57-.39,2.26-.59.39-.2.79-.3,1.28-.39.39-.1.79-.2,1.18-.39,1.08-.2,2.16-.59,3.25-.89.89-.3,1.77-.59,2.75-.79,1.67-.49,3.25-.89,4.92-1.38.69-.2,1.28-.39,1.97-.59,1.97-.69,3.74-1.28,5.61-1.87,1.57-.59,3.25-1.08,4.92-1.57.2,0,.39-.1.59-.2.59-.29,1.28-.49,1.97-.69.98-.29,1.87-.69,2.76-.98l.1-.1c1.57-.59,3.05-1.08,4.62-1.57v-.1c.69-.2,1.38-.49,2.07-.69,1.97-.69,3.84-1.38,5.81-2.17.69-.29,1.28-.59,1.97-.89,6.59-2.56,13.09-5.31,19.38-8.27,3.25-1.38,6.3-2.85,9.54-4.43,6.3-2.95,12.5-6.2,18.6-9.54,4.62-2.56,9.25-5.12,13.78-7.77,2.26-1.28,4.43-2.56,6.49-3.94,2.17-1.38,4.43-2.76,6.59-4.23,2.66-1.57,5.22-3.25,7.77-5.02,4.13-2.75,8.26-5.61,12.3-8.56.69-.49,1.48-.98,2.16-1.57,3.94-2.85,7.77-5.81,11.61-8.86h.1c.39-.3.69-.59,1.08-.89,2.26-1.87,4.72-3.74,6.99-5.71,2.66-2.17,5.22-4.43,7.97-6.69.2-.2.49-.49.79-.69,5.41-4.72,10.63-9.55,15.84-14.66,10.73-10.14,20.86-20.96,30.41-32.28,1.38-1.57,2.75-3.25,4.03-4.82,2.07-2.46,4.03-4.92,6-7.38,1.97-2.46,3.94-5.02,5.81-7.58,1.08-1.38,2.16-2.85,3.15-4.33,1.08-1.38,2.16-2.75,3.15-4.23.2-.2.29-.39.29-.49.3-.39.59-.69.79-1.08,1.48-2.07,2.95-4.23,4.43-6.3.69-1.18,1.57-2.36,2.26-3.54,1.48-2.17,2.85-4.23,4.23-6.3.2-.39.39-.69.59-1.08,1.58-2.36,3.15-4.82,4.63-7.28.1-.1.2-.29.29-.49,1.77-2.95,3.54-6,5.31-8.95.49-.98.98-1.77,1.48-2.76,1.48-2.36,2.76-4.72,4.03-7.18.69-1.18,1.38-2.46,2.07-3.84.79-1.57,1.67-3.05,2.46-4.62,1.28-2.66,2.66-5.22,3.94-7.87,1.57-3.44,3.25-6.79,4.82-10.14.79-1.87,1.67-3.74,2.46-5.61.69-1.57,1.38-3.15,1.97-4.72.39-.79.69-1.67,1.08-2.56.39-.89.79-1.87,1.18-2.85.69-1.48,1.18-2.95,1.77-4.53.39-.79.69-1.67,1.08-2.56.88-2.36,1.77-4.82,2.66-7.28,1.28-3.25,2.46-6.59,3.54-9.94.79-2.36,1.57-4.82,2.36-7.18.89-2.56,1.67-5.12,2.36-7.58,1.18-3.74,2.16-7.28,3.15-10.92.39-1.48.79-2.95,1.08-4.43.2-.29.2-.59.29-.89.79-2.85,1.48-5.81,2.17-8.76.2-.69.29-1.28.39-1.87.3-.89.39-1.77.59-2.66.69-2.95,1.28-5.71,1.87-8.56.49-2.46.98-4.92,1.38-7.38.2-.59.2-1.18.3-1.77.39-2.17.79-4.23,1.18-6.3.2-1.48.49-2.85.59-4.33.39-1.77.59-3.54.89-5.21.2-1.77.39-3.44.59-5.12.1-.3.1-.69.1-1.08.2-1.18.3-2.26.49-3.44.3-2.26.49-4.43.79-6.79.3-3.64.69-7.28.89-10.92.29-3.35.59-6.69.69-10.04v-.59c.2-3.05.39-6.3.39-9.45v-1.97c.2-3.74.2-7.38.2-11.12s0-7.38-.2-11.12v-1.97c0-3.15-.2-6.3-.39-9.45v-.49c-.1-3.44-.39-6.69-.69-10.14-.2-3.64-.59-7.28-.89-10.92-.3-2.26-.49-4.53-.79-6.79-.2-1.08-.3-2.26-.49-3.35,0-.49,0-.79-.1-1.18-.2-1.67-.39-3.35-.59-5.02-.29-1.77-.49-3.54-.89-5.21-.1-1.48-.39-2.95-.59-4.43-.39-1.97-.79-4.13-1.18-6.2-.1-.69-.1-1.18-.3-1.87-.39-2.46-.89-4.92-1.38-7.28-.59-2.95-1.18-5.71-1.87-8.66-.2-.89-.3-1.67-.59-2.66-.1-.59-.2-1.18-.39-1.77-.69-2.95-1.38-5.9-2.17-8.86-.1-.3-.1-.49-.29-.79-.3-1.48-.69-2.95-1.08-4.43-.98-3.74-1.97-7.28-3.15-10.92-.39-1.57-.89-3.15-1.48-4.72-.3-.98-.49-1.87-.89-2.85-.79-2.46-1.57-4.92-2.36-7.18-1.08-3.44-2.26-6.69-3.54-10.04-.89-2.46-1.77-4.82-2.66-7.28-.39-.79-.69-1.77-1.08-2.56-.59-1.57-1.08-3.05-1.77-4.53-.59-1.38-1.08-2.66-1.67-4.03-.1-.49-.39-.98-.59-1.38-.98-2.36-1.97-4.62-3.05-6.99-.39-1.08-.89-2.26-1.38-3.25-.79-1.77-1.57-3.35-2.46-5.02-.79-1.67-1.57-3.44-2.36-5.12-1.28-2.75-2.66-5.31-3.94-7.97-.59-1.08-1.18-2.16-1.87-3.35-.98-1.97-2.07-3.94-3.05-5.9-.39-.69-.79-1.38-1.18-2.07-.29-.49-.49-.98-.79-1.48-1.18-2.16-2.46-4.33-3.64-6.49-1.57-2.56-3.05-5.12-4.72-7.77-.29-.59-.69-1.28-1.08-1.87-1.48-2.46-2.95-4.82-4.53-7.18-1.38-2.16-2.75-4.33-4.33-6.4-6.3-9.64-13.09-18.99-20.27-28.14-.69-.79-1.18-1.48-1.87-2.26-1.28-1.77-2.75-3.44-4.13-5.22-2.16-2.66-4.43-5.31-6.79-7.87-4.62-5.41-9.45-10.63-14.37-15.84-2.36-2.56-4.82-5.02-7.38-7.48-4.62-4.72-9.45-9.35-14.37-13.78-.49-.39-.89-.79-1.28-1.18-2.16-1.87-4.33-3.84-6.49-5.71-2.66-2.26-5.31-4.53-7.97-6.69-2.16-1.87-4.43-3.74-6.69-5.41-5.41-4.33-10.92-8.46-16.53-12.5-1.28-.89-2.56-1.87-3.94-2.76-.79-.59-1.57-1.08-2.36-1.67-.59-.39-1.08-.79-1.67-1.18-1.77-1.18-3.54-2.46-5.41-3.64-3.64-2.36-7.28-4.72-10.92-6.99-.39-.2-.79-.49-1.08-.69-1.87-1.08-3.64-2.26-5.51-3.25-.59-.39-1.08-.69-1.57-.98-.59-.29-1.08-.69-1.67-.98-.3-.2-.69-.39-1.08-.49-.39-.3-.79-.59-1.28-.79-.49-.3-.89-.59-1.28-.79-20.96-12-42.9-22.24-65.93-30.6-2.95-1.18-6.1-2.17-9.25-3.25-1.18-.49-2.26-.79-3.44-1.18-.39-.1-.89-.29-1.38-.39-2.85-.98-5.9-1.97-8.95-2.85-1.48-.49-2.95-.98-4.43-1.38-3.25-.89-6.4-1.77-9.64-2.56-3.25-.98-6.4-1.77-9.64-2.46-2.07-.49-4.13-.98-6.2-1.48-.49-.1-1.08-.29-1.67-.39-7.48-1.57-15.06-3.05-22.83-4.33-1.28-.2-2.56-.49-3.84-.69-1.87-.3-3.84-.49-5.81-.79-1.38-.2-2.66-.49-4.03-.49-1.38-.29-2.85-.49-4.33-.59-.59-.2-1.28-.2-1.97-.29-1.48-.1-2.95-.39-4.43-.39-.2,0-.3-.1-.49-.1-.39-.1-.79-.1-1.18-.1-1.77-.29-3.74-.49-5.61-.49-.69-.1-1.48-.29-2.26-.29-.39,0-.69,0-1.08-.1-11.51-.89-23.22-1.38-35.13-1.38-2.17,0-4.23,0-6.4.1-1.28,0-2.46.1-3.74.1-2.46,0-5.12.1-7.67.2-1.67,0-3.25.1-4.92.2-3.64.2-7.18.39-10.83.69-1.28.1-2.56.2-3.84.39-.3,0-.49.1-.79.1h-.49l-2.36.2c-.79,0-1.67.1-2.46.2-.3,0-.49.1-.79.1-1.18.1-2.46.2-3.74.39-.3,0-.59.1-.89.1-.39.1-.79.1-1.18.2-2.07.2-4.03.49-6,.79h-.2c-6.79.79-13.38,1.77-19.97,2.95-3.64.69-7.18,1.38-10.73,2.17-3.74.69-7.48,1.57-11.22,2.36-3.44.89-6.89,1.67-10.23,2.56-3.25.89-6.4,1.67-9.54,2.56-4.82,1.38-9.45,2.75-14.07,4.33-.2.1-.39.1-.49.2-2.46.79-4.92,1.67-7.28,2.46-1.18.3-2.36.69-3.54,1.18-1.18.39-2.36.79-3.54,1.28h-.2l-56.78-157.54-5.12-14.56c4.53-1.67,8.95-3.25,13.48-4.82,4.53-1.48,9.15-2.95,13.58-4.33,3.74-1.18,7.48-2.26,11.32-3.44h.3c2.85-.89,5.8-1.67,8.76-2.46,1.87-.49,3.84-1.08,5.81-1.57,3.05-.89,6.2-1.67,9.45-2.46.79-.2,1.57-.39,2.46-.49,3.05-.79,6.2-1.57,9.45-2.26,1.67-.39,3.35-.69,5.12-1.08,3.25-.69,6.49-1.38,9.84-2.07,4.43-.89,8.95-1.67,13.38-2.46,4.63-.79,9.35-1.57,13.97-2.26,3.35-.49,6.69-.98,10.04-1.48.89-.1,1.87-.2,2.76-.3,2.66-.39,5.21-.69,7.87-.98.89-.1,1.77-.2,2.56-.3.98-.1,1.87-.2,2.85-.29,3.94-.39,7.97-.79,11.91-1.08.39-.1.69-.2,1.08-.2.59,0,1.08,0,1.57-.1,2.76-.2,5.41-.39,7.97-.59,4.23-.29,8.37-.59,12.6-.79h.3c4.92-.29,9.94-.39,14.96-.49h.3c5.12-.2,10.23-.29,15.45-.29,4.53,0,9.05.1,13.48.29,4.43,0,8.95.2,13.38.39,4.53.2,8.95.39,13.38.69,4.43.3,8.86.59,13.29.98.1,0,.1.1.1.1,0,0,0-.1.1-.1.3,0,.59.1.98.1,5.51.49,11.22,1.08,16.73,1.67.39.1.69.1,1.08.1.2,0,.3.1.59.1,3.25.39,6.59.89,9.84,1.28,3.44.49,6.99.89,10.43,1.48.2,0,.39.1.59.1,4.43.69,8.76,1.38,13.19,2.16,3.84.59,7.68,1.38,11.51,2.17,4.62.89,9.25,1.87,13.78,2.85,2.76.69,5.61,1.18,8.36,1.87,6.99,1.57,13.87,3.35,20.76,5.31,2.95.69,5.9,1.57,8.86,2.46,7.08,1.97,14.17,4.13,21.16,6.49,2.66.89,5.22,1.77,7.87,2.66,3.15,1.08,6.4,2.16,9.64,3.44,10.13,3.64,20.17,7.58,30.11,11.81,22.04,9.25,43.4,19.78,63.96,31.49,1.48.89,2.85,1.67,4.33,2.46.69.49,1.38.89,2.07,1.28.69.39,1.38.89,2.07,1.28,2.26,1.28,4.53,2.56,6.69,3.94,1.87,1.08,3.74,2.17,5.41,3.35.49.2.89.49,1.28.79,1.48.79,2.76,1.67,4.13,2.46,3.54,2.26,7.09,4.63,10.63,6.89,1.48.98,3.05,2.07,4.53,3.15,3.74,2.46,7.38,5.02,11.02,7.58,2.16,1.57,4.33,3.15,6.49,4.72,3.05,2.17,6,4.33,8.96,6.59,2.75,2.17,5.41,4.23,8.17,6.4,3.94,3.05,7.77,6.1,11.61,9.25,3.25,2.75,6.59,5.51,9.84,8.36,1.57,1.28,3.25,2.66,4.72,4.13,1.67,1.38,3.25,2.75,4.72,4.23h.1c1.48,1.28,2.95,2.56,4.33,3.94,6.89,6.3,13.68,12.79,20.27,19.39,17.71,17.61,34.14,36.11,49.4,55.5,4.53,5.9,8.95,11.81,13.38,17.71,3.25,4.53,6.49,9.05,9.54,13.58,6.3,9.15,12.3,18.5,18.11,27.85,2.85,4.72,5.71,9.55,8.46,14.37,4.92,8.46,9.64,17.22,14.07,25.98,6.69,13.19,12.89,26.67,18.79,40.34,1.97,4.72,3.94,9.55,5.81,14.27,1.48,3.64,2.85,7.18,4.13,10.82.39.98.79,2.07,1.18,3.15.79,2.17,1.48,4.33,2.26,6.49.69,1.77,1.28,3.54,1.87,5.31,1.38,3.94,2.66,7.87,3.94,11.81,1.28,3.94,2.56,7.87,3.64,11.81,1.18,4.03,2.46,7.97,3.44,12,1.18,3.94,2.17,7.97,3.15,12.01.39,1.28.79,2.66.98,3.94.3.98.59,1.97.79,2.95.69,3.05,1.48,6,2.07,8.95,1.08,4.43,1.97,8.86,2.85,13.28.98,4.43,1.77,8.86,2.56,13.38.2.79.29,1.48.39,2.26.3,1.67.69,3.54.89,5.41.1.49.2,1.08.3,1.67.49,3.05,1.08,6.2,1.48,9.25.49,3.15.89,6.2,1.28,9.35.1.49.2.98.29,1.48.1,1.57.3,3.25.49,4.72.29,2.16.49,4.23.79,6.4.39,3.44.69,6.99.98,10.43.2,2.26.49,4.53.69,6.79v.89c.29,3.25.49,6.59.79,9.84,0,1.08.1,2.17.2,3.25.1,2.95.3,5.9.39,8.76.1.39.1.69.1,1.08.1,3.25.3,6.49.3,9.84v.39c.1.69.1,1.28.1,1.87.1,5.12.2,10.23.2,15.45s-.1,10.33-.2,15.55c0,.49,0,.98-.1,1.48v1.67c0,2.95-.2,5.9-.3,8.95-.1,1.97-.2,3.84-.3,5.71-.1,1.48-.2,2.95-.2,4.33-.1,1.48-.2,2.85-.3,4.23-.1.69-.1,1.28-.2,1.77-.1,2.26-.2,4.43-.49,6.59-.2,2.56-.39,5.22-.69,7.77-.3,3.54-.59,6.99-.98,10.53-.39,3.44-.79,6.89-1.28,10.33-.49,3.54-.89,6.99-1.48,10.53-.49,3.44-.98,6.89-1.57,10.33-.39,3.05-.98,6.2-1.57,9.35-.79,4.43-1.57,8.95-2.56,13.38-.89,4.43-1.77,8.86-2.85,13.28-.59,3.05-1.38,6-2.07,8.86-.79,3.15-1.48,6.3-2.26,9.35-.79,3.15-1.67,6.2-2.46,9.35-.69,2.26-1.28,4.43-1.97,6.69-.2.69-.3,1.28-.49,1.97-.69,1.97-1.28,4.03-1.87,6.1-.1.3-.2.49-.3.79-1.28,4.23-2.66,8.56-4.03,12.89-1.28,3.94-2.66,7.87-4.03,11.71-.2.39-.2.69-.39.98-.79,2.16-1.48,4.33-2.26,6.59-.39.98-.79,2.07-1.18,3.05-1.28,3.64-2.66,7.28-4.13,10.82-1.87,4.82-3.84,9.64-5.81,14.27-2.16,5.22-4.43,10.33-6.69,15.35-4.13,9.15-8.56,18.3-13.29,27.26-1.08,2.26-2.36,4.62-3.54,6.89-1.38,2.75-2.95,5.41-4.43,8.17-.98,1.77-1.97,3.64-3.15,5.41-1.77,3.44-3.74,6.89-5.81,10.23-.3.59-.69,1.08-.98,1.67-2.66,4.53-5.41,9.05-8.36,13.58-2.56,4.13-5.22,8.27-7.97,12.3-3.35,5.22-6.79,10.23-10.43,15.25,0,.1-.1.1-.1.1-5.71,7.97-11.51,15.84-17.51,23.52-5.02,6.4-10.23,12.69-15.45,18.89l212.35,212.35c30.7,30.7,30.7,80.49,0,111.19Z"/>
      <rect class="cls-5" x="1428.47" y="1212.02" width="221.32" height="23.22" transform="translate(-414.44 1446.72) rotate(-45)"/>
      <g>
        <polygon class="cls-1" points="1023.53 1054.39 1191.25 821.53 855.8 821.53 1023.53 1054.39"/>
        <circle class="cls-7" cx="1023.53" cy="723" r="194.45"/>
      </g>
      <g>
        <rect class="cls-2" x="951.05" y="644.39" width="61.95" height="61.95"/>
        <rect class="cls-2" x="1040.7" y="644.39" width="61.95" height="61.95"/>
        <rect class="cls-2" x="951.05" y="726.72" width="61.95" height="61.95"/>
        <rect class="cls-2" x="1040.7" y="726.72" width="61.95" height="61.95"/>
      </g>
    </g>
  </g>
</svg>